<svg width="113" height="118" viewBox="0 0 113 118" fill="none" xmlns="http://www.w3.org/2000/svg">
<g clip-path="url(#clip0_202_8)">
<mask id="mask0_202_8" style="mask-type:luminance" maskUnits="userSpaceOnUse" x="0" y="0" width="113" height="118">
<path d="M113 0H0V118H113V0Z" fill="white"/>
</mask>
<g mask="url(#mask0_202_8)">
<path d="M77.5 118C97.1061 118 113 102.106 113 82.5C113 62.8939 97.1061 47 77.5 47C57.8939 47 42 62.8939 42 82.5C42 102.106 57.8939 118 77.5 118Z" fill="#ACBBD6"/>
<path d="M78.888 105.44C71.848 105.44 66.4293 103.456 62.632 99.488C58.8773 95.52 57 89.9307 57 82.72C57 75.5094 58.8773 69.92 62.632 65.952C66.4293 61.984 71.848 60 78.888 60C85.885 60 91.283 61.984 95.08 65.952C98.877 69.92 100.776 75.5094 100.776 82.72C100.776 89.9307 98.877 95.52 95.08 99.488C91.283 103.456 85.885 105.44 78.888 105.44ZM78.888 99.424C83.368 99.424 86.781 98.016 89.128 95.2C91.475 92.3414 92.648 88.1814 92.648 82.72C92.648 77.2587 91.475 73.12 89.128 70.304C86.781 67.488 83.368 66.08 78.888 66.08C74.408 66.08 70.9733 67.488 68.584 70.304C66.2373 73.12 65.064 77.2587 65.064 82.72C65.064 88.1814 66.2373 92.3414 68.584 95.2C70.9733 98.016 74.408 99.424 78.888 99.424Z" fill="black"/>
<path d="M35.5 71C55.1061 71 71 55.1061 71 35.5C71 15.8939 55.1061 0 35.5 0C15.8939 0 0 15.8939 0 35.5C0 55.1061 15.8939 71 35.5 71Z" fill="#ACBBD6" fill-opacity="0.733333"/>
<path d="M20.3719 58.6286C19.6754 58.6286 19.1414 58.5192 18.77 58.3004C18.445 58.0379 18.2129 57.6003 18.0736 56.9878L7.06964 15.5751C7.02318 15.4439 7 15.247 7 14.9845C7 14.3282 7.44105 14 8.32326 14H13.9645C14.661 14 15.1485 14.1093 15.4271 14.3282C15.7056 14.5469 15.8914 14.8969 15.9842 15.3782L22.9487 44.2555L31.3061 18.791C31.4919 18.266 31.7008 17.9159 31.9329 17.7409C32.2115 17.5221 32.6526 17.4128 33.2562 17.4128H36.4599C37.0635 17.4128 37.4814 17.5221 37.7135 17.7409C37.9921 17.9159 38.2242 18.266 38.4099 18.791L46.837 44.2555L53.7319 15.3782C53.8247 14.8969 54.0104 14.5469 54.289 14.3282C54.6141 14.1093 55.1016 14 55.7516 14H61.4625C62.3447 14 62.7857 14.3282 62.7857 14.9845C62.7857 15.247 62.7625 15.4439 62.7161 15.5751L51.6425 56.9878C51.4567 57.6003 51.1782 58.0379 50.8068 58.3004C50.4817 58.5192 49.9942 58.6286 49.3442 58.6286H45.5834C44.9334 58.6286 44.4226 58.5192 44.0512 58.3004C43.7261 58.0379 43.4708 57.6003 43.2851 56.9878L34.858 30.7357L26.5006 56.9878C26.3149 57.6003 26.0363 58.0379 25.6649 58.3004C25.3398 58.5192 24.8523 58.6286 24.2023 58.6286H20.3719Z" fill="black"/>
</g>
</g>
<defs>
<clipPath id="clip0_202_8">
<rect width="113" height="118" fill="white"/>
</clipPath>
</defs>
</svg>
